<svg xmlns="http://www.w3.org/2000/svg" width="553" height="297" viewBox="0 0 553 297">
  <g fill="none" fill-rule="evenodd" transform="rotate(-54 117.762 129.622)">
    <path fill="#D61313" fill-rule="nonzero" d="M261.357768,283.989323 C261.185991,282.785165 260.355115,281.776126 259.203091,281.372882 L245.188356,276.48378 C245.66821,274.036441 245.922141,271.52778 245.922141,268.983811 L245.922141,267.263055 L258.122018,267.263055 C259.92754,267.263055 261.389509,265.808031 261.389509,264.011087 C261.389509,262.214142 259.92754,260.759118 258.122018,260.759118 L245.922141,260.759118 L245.922141,251.281953 L259.203091,246.647433 C260.355115,246.246047 261.185991,245.23515 261.357768,244.030992 L263.968026,225.524504 C264.218223,223.746142 262.972842,222.101575 261.185991,221.852567 C259.41221,221.601701 257.746724,222.843024 257.49466,224.621386 L255.160738,241.165543 L245.920274,244.391496 L245.920274,234.297386 C245.920274,232.502299 244.458305,231.045417 242.652783,231.045417 L238.451723,231.045417 C237.393056,220.73389 231.337929,211.892252 222.758431,206.897228 C223.615448,201.030677 228.690328,196.507654 234.816406,196.507654 C236.621928,196.507654 238.083897,195.050772 238.083897,193.255685 C238.083897,191.460598 236.621928,190.003717 234.816406,190.003717 C226.048328,190.003717 218.688071,196.037512 216.656626,204.146992 C213.525436,203.117512 210.188861,202.543307 206.715985,202.543307 C203.037724,202.543307 199.518169,203.197417 196.228273,204.34211 C194.267778,196.132283 186.857109,190 178.016212,190 C176.212557,190 174.748721,191.456882 174.748721,193.251969 C174.748721,195.047055 176.212557,196.503937 178.016212,196.503937 C184.25992,196.503937 189.415087,201.197921 190.126467,207.226142 C181.84011,212.275055 176.018375,220.951307 174.982113,231.041701 L170.779187,231.041701 C168.975532,231.041701 167.511696,232.498583 167.511696,234.293669 L167.511696,244.38778 L158.224553,241.146961 L155.492931,224.545197 C155.201657,222.772409 153.523101,221.568252 151.739984,221.861858 C149.958735,222.151748 148.750697,223.824189 149.043837,225.596976 L152.089139,244.103465 C152.283321,245.27789 153.104862,246.25348 154.232613,246.647433 L167.511696,251.281953 L167.511696,260.759118 L155.311818,260.759118 C153.508163,260.759118 152.044328,262.214142 152.044328,264.011087 C152.044328,265.808031 153.508163,267.263055 155.311818,267.263055 L167.511696,267.263055 L167.511696,268.983811 C167.511696,271.550079 167.776829,274.053165 168.254817,276.481921 L154.232613,281.37474 C153.104862,281.768693 152.283321,282.742425 152.089139,283.91685 L149.043837,302.425197 C148.752564,304.197984 149.958735,305.870425 151.739984,306.160315 C151.919229,306.191906 152.096607,306.203055 152.272118,306.203055 C153.844248,306.203055 155.229664,305.07137 155.492931,303.476976 L158.224553,286.871496 L170.075276,282.73685 C175.680423,297.474772 189.969627,308 206.717852,308 C206.717852,308 206.717852,308 206.717852,308 C206.717852,308 206.717852,308 206.717852,308 C206.717852,308 206.717852,308 206.717852,308 C217.14955,308 226.981897,303.928535 234.405636,296.540063 C238.416248,292.548504 241.414871,287.84337 243.360428,282.73685 L255.160738,286.854772 L257.49466,303.400787 C257.724318,305.026772 259.124671,306.201197 260.726675,306.201197 C260.877914,306.201197 261.031019,306.190047 261.184124,306.169606 C262.970975,305.91874 264.216356,304.274173 263.966159,302.495811 L261.357768,283.989323 Z M206.439408,208.995751 C219.238606,208.995751 229.8409,218.601699 231.440335,230.995751 L181.440335,230.995751 C183.037916,218.601699 193.640209,208.995751 206.439408,208.995751 Z M174.49227,268.678776 L174.49227,237.136519 L178.473601,237.136519 L203.49227,237.136519 L203.49227,301.136519 C187.231792,299.495732 174.49227,285.565827 174.49227,268.678776 Z M239.297253,268.621442 C239.297253,277.294984 235.93424,285.476304 229.827038,291.657042 C224.493366,297.056564 217.651311,300.336177 210.297253,301.080103 L210.297253,237.080103 L235.317258,237.080103 L239.297253,237.080103 L239.297253,268.621442 Z"/>
    <path fill="#737387" fill-rule="nonzero" d="M0,126.067315 C0,195.261897 56.1782776,251.451061 125.35925,251.451061 C158.390616,251.451061 188.427528,238.658063 210.844184,217.7261 C211.063141,218.138041 211.347589,218.519534 211.683641,218.845504 L237.706878,244.87389 C233.392286,249.212253 228.910475,253.71181 224.55535,257.888083 C223.407781,259.639727 223.720084,262.200924 225.2549,263.625701 L257.624225,296.001284 L332.805845,296.001284 C305.926897,269.676464 282.621834,246.336828 262.890655,225.982377 C261.235567,224.345808 258.249802,224.345808 256.594714,225.982377 L244.142735,238.436868 L218.119498,212.408482 C217.793367,212.072661 217.414142,211.787885 217.000218,211.568929 C237.928025,189.147711 250.7185,159.105142 250.7185,126.067315 C250.7185,56.8729131 194.540217,0.683659084 125.35925,0.683659084 C56.1782776,0.683659084 0,56.8729131 0,126.067315 Z M125.502451,10.1217711 C189.656905,10.1217711 241.568627,62.0436755 241.568627,126.210594 C241.568627,190.377557 189.656905,242.299327 125.502451,242.299327 C61.3479962,242.299327 9.43627451,190.377557 9.43627451,126.210594 C9.43627451,62.0436755 61.3479962,10.1217711 125.502451,10.1217711 Z M120.801528,37.5722308 C121.023197,39.8664441 123.376296,41.758193 125.740841,41.543116 C151.918104,41.543116 174.298438,52.7585785 190.093028,70.7084183 C191.570468,72.6545389 194.82868,72.9990828 196.703494,71.4074077 C198.578309,69.8157326 198.658871,66.6366323 196.866913,64.9575069 C179.52961,45.2544542 154.589821,32.7798119 125.74081,32.7798119 C125.599788,32.7710494 125.458451,32.7710494 125.31743,32.7798119 C125.176409,32.7710494 125.035071,32.7710494 124.89405,32.7798119 C122.529559,32.9949328 120.579854,35.2780176 120.801528,37.5722308 Z M209.129777,95.2264263 C205.916679,95.8439911 204.521028,100.9266 206.920025,103.273777 C206.460824,102.787347 207.696586,104.135586 208.43923,105.614867 C209.181875,107.094102 209.856575,108.948435 210.234653,110.443259 C210.812649,112.818807 213.379101,114.422762 215.621223,113.809785 C217.863345,113.196762 219.376659,110.477388 218.797435,108.102215 C218.161654,105.588509 217.154556,103.179815 216.173354,101.225387 C215.192156,99.2709117 214.662019,98.0147612 213.273059,96.5432987 C212.365413,95.5180034 211.004444,94.9634545 209.682213,95.0801228 C209.495372,95.1178106 209.310697,95.1655641 209.129777,95.2264263 Z M259.068294,234.748838 C272.938814,249.056573 293.294894,269.477788 320.136535,296.012481 L270.221283,296.011373 L234.019608,259.802766 L259.068294,234.748838 Z" transform="rotate(54 43.262 275.836)"/>
    <line x1="157.19" x2="193.69" y1="104.516" y2="104.016" stroke="#E4E4E4" stroke-linecap="round" stroke-width="8" transform="rotate(54 175.69 104.516)"/>
    <line x1="347.431" x2="377.026" y1="419.387" y2="418.887" stroke="#E4E4E4" stroke-linecap="round" stroke-width="8" transform="rotate(54 362.431 419.387)"/>
    <line x1="352.062" x2="373.062" y1="361.378" y2="361.378" stroke="#E4E4E4" stroke-linecap="round" stroke-width="8" transform="rotate(54 362.312 361.378)"/>
    <line x1="131.174" x2="152.174" y1="115.197" y2="115.197" stroke="#E4E4E4" stroke-linecap="round" stroke-width="8" transform="rotate(54 141.424 115.197)"/>
    <line x1="106.827" x2="127.827" y1="137.83" y2="137.83" stroke="#F4F4F4" stroke-linecap="round" stroke-width="8" transform="rotate(54 117.077 137.83)"/>
    <line x1="289.11" x2="361.11" y1="423.817" y2="423.817" stroke="#E4E4E4" stroke-linecap="round" stroke-width="8" transform="rotate(54 324.86 423.817)"/>
    <line x1="81.829" x2="174.079" y1="38.985" y2="38.485" stroke="#F4F4F4" stroke-linecap="round" stroke-width="8" transform="rotate(54 128.08 38.985)"/>
    <line x1="304.307" x2="356.103" y1="374.891" y2="374.891" stroke="#F4F4F4" stroke-linecap="round" stroke-width="8" transform="rotate(54 330.103 374.891)"/>
    <line x1="335.371" x2="350.121" y1="334.276" y2="334.276" stroke="#E4E4E4" stroke-linecap="round" stroke-width="8" transform="rotate(54 342.621 334.276)"/>
    <line x1="89.622" x2="135.622" y1="75.555" y2="75.555" stroke="#E4E4E4" stroke-linecap="round" stroke-width="8" transform="rotate(54 112.622 75.555)"/>
    <line x1="97.032" x2="103.032" y1="114.368" y2="114.368" stroke="#E4E4E4" stroke-linecap="round" stroke-width="8" transform="rotate(54 100.032 114.368)"/>
    <line x1="282.93" x2="297.68" y1="376.085" y2="376.085" stroke="#E4E4E4" stroke-linecap="round" stroke-width="8" transform="rotate(54 290.18 376.085)"/>
    <line x1="355.228" x2="369.978" y1="475.594" y2="475.594" stroke="#F4F4F4" stroke-linecap="round" stroke-width="8" transform="rotate(54 362.478 475.594)"/>
  </g>
</svg>
